<mxfile host="app.diagrams.net" modified="2021-11-17T10:18:23.666Z" agent="5.0 (Windows NT 10.0; Win64; x64) AppleWebKit/537.36 (KHTML, like Gecko) Chrome/95.0.4638.69 Safari/537.36" etag="7bOpCVlC1A2ojjMbX3WI" version="15.7.3" type="github">
  <diagram id="6pyxRhWf1QsRiaF_OlMY" name="Page-1">
    <mxGraphModel dx="813" dy="454" grid="1" gridSize="10" guides="1" tooltips="1" connect="1" arrows="1" fold="1" page="1" pageScale="1" pageWidth="827" pageHeight="1169" math="0" shadow="0">
      <root>
        <mxCell id="0" />
        <mxCell id="1" parent="0" />
        <mxCell id="mbRrAeMz2OmrTtf-kYGx-9" style="edgeStyle=none;rounded=0;orthogonalLoop=1;jettySize=auto;html=1;" edge="1" parent="1" source="mbRrAeMz2OmrTtf-kYGx-1" target="mbRrAeMz2OmrTtf-kYGx-8">
          <mxGeometry relative="1" as="geometry" />
        </mxCell>
        <mxCell id="mbRrAeMz2OmrTtf-kYGx-13" style="edgeStyle=none;rounded=0;orthogonalLoop=1;jettySize=auto;html=1;entryX=0;entryY=0.5;entryDx=0;entryDy=0;" edge="1" parent="1" source="mbRrAeMz2OmrTtf-kYGx-1" target="mbRrAeMz2OmrTtf-kYGx-12">
          <mxGeometry relative="1" as="geometry" />
        </mxCell>
        <mxCell id="mbRrAeMz2OmrTtf-kYGx-15" style="edgeStyle=none;rounded=0;orthogonalLoop=1;jettySize=auto;html=1;entryX=0;entryY=0.5;entryDx=0;entryDy=0;" edge="1" parent="1" source="mbRrAeMz2OmrTtf-kYGx-1" target="mbRrAeMz2OmrTtf-kYGx-14">
          <mxGeometry relative="1" as="geometry" />
        </mxCell>
        <mxCell id="mbRrAeMz2OmrTtf-kYGx-1" value="数据存储系统" style="shape=cylinder3;whiteSpace=wrap;html=1;boundedLbl=1;backgroundOutline=1;size=15;" vertex="1" parent="1">
          <mxGeometry x="420" y="280" width="60" height="80" as="geometry" />
        </mxCell>
        <mxCell id="mbRrAeMz2OmrTtf-kYGx-5" style="edgeStyle=none;rounded=0;orthogonalLoop=1;jettySize=auto;html=1;entryX=0;entryY=0.5;entryDx=0;entryDy=0;entryPerimeter=0;" edge="1" parent="1" source="mbRrAeMz2OmrTtf-kYGx-2" target="mbRrAeMz2OmrTtf-kYGx-1">
          <mxGeometry relative="1" as="geometry" />
        </mxCell>
        <mxCell id="mbRrAeMz2OmrTtf-kYGx-2" value=".skp" style="rounded=1;whiteSpace=wrap;html=1;fillColor=#f8cecc;strokeColor=#b85450;" vertex="1" parent="1">
          <mxGeometry x="120" y="170" width="130" height="60" as="geometry" />
        </mxCell>
        <mxCell id="mbRrAeMz2OmrTtf-kYGx-6" style="edgeStyle=none;rounded=0;orthogonalLoop=1;jettySize=auto;html=1;entryX=0;entryY=0.5;entryDx=0;entryDy=0;entryPerimeter=0;" edge="1" parent="1" source="mbRrAeMz2OmrTtf-kYGx-3" target="mbRrAeMz2OmrTtf-kYGx-1">
          <mxGeometry relative="1" as="geometry" />
        </mxCell>
        <mxCell id="mbRrAeMz2OmrTtf-kYGx-3" value=".ifc" style="rounded=1;whiteSpace=wrap;html=1;" vertex="1" parent="1">
          <mxGeometry x="120" y="260" width="130" height="60" as="geometry" />
        </mxCell>
        <mxCell id="mbRrAeMz2OmrTtf-kYGx-7" style="edgeStyle=none;rounded=0;orthogonalLoop=1;jettySize=auto;html=1;entryX=0;entryY=0.5;entryDx=0;entryDy=0;entryPerimeter=0;" edge="1" parent="1" source="mbRrAeMz2OmrTtf-kYGx-4" target="mbRrAeMz2OmrTtf-kYGx-1">
          <mxGeometry relative="1" as="geometry" />
        </mxCell>
        <mxCell id="mbRrAeMz2OmrTtf-kYGx-4" value=".rvt" style="rounded=1;whiteSpace=wrap;html=1;" vertex="1" parent="1">
          <mxGeometry x="120" y="360" width="130" height="60" as="geometry" />
        </mxCell>
        <mxCell id="mbRrAeMz2OmrTtf-kYGx-8" value="SU" style="rounded=1;whiteSpace=wrap;html=1;" vertex="1" parent="1">
          <mxGeometry x="740" y="210" width="120" height="60" as="geometry" />
        </mxCell>
        <mxCell id="mbRrAeMz2OmrTtf-kYGx-11" style="edgeStyle=none;rounded=0;orthogonalLoop=1;jettySize=auto;html=1;entryX=0;entryY=0.5;entryDx=0;entryDy=0;entryPerimeter=0;" edge="1" parent="1" source="mbRrAeMz2OmrTtf-kYGx-10" target="mbRrAeMz2OmrTtf-kYGx-1">
          <mxGeometry relative="1" as="geometry" />
        </mxCell>
        <mxCell id="mbRrAeMz2OmrTtf-kYGx-10" value=".rft" style="rounded=1;whiteSpace=wrap;html=1;" vertex="1" parent="1">
          <mxGeometry x="120" y="460" width="130" height="60" as="geometry" />
        </mxCell>
        <mxCell id="mbRrAeMz2OmrTtf-kYGx-12" value="Revit" style="rounded=1;whiteSpace=wrap;html=1;" vertex="1" parent="1">
          <mxGeometry x="740" y="300" width="120" height="60" as="geometry" />
        </mxCell>
        <mxCell id="mbRrAeMz2OmrTtf-kYGx-14" value="Rhino" style="rounded=1;whiteSpace=wrap;html=1;" vertex="1" parent="1">
          <mxGeometry x="740" y="400" width="120" height="60" as="geometry" />
        </mxCell>
      </root>
    </mxGraphModel>
  </diagram>
</mxfile>
